<svg xmlns="http://www.w3.org/2000/svg" viewBox="0 0 508.5 26.23"><defs><style>.cls-1{fill:#fff;}</style></defs><g id="Layer_2" data-name="Layer 2"><g id="Layer_1-2" data-name="Layer 1"><polygon class="cls-1" points="260.7 6.56 254.18 13.12 247.66 6.56 254.18 0 260.7 6.56"/><polygon class="cls-1" points="260.7 19.67 254.18 26.23 247.66 19.67 254.18 13.12 260.7 19.67"/><polygon class="cls-1" points="273.74 6.56 267.22 13.12 260.7 6.56 267.22 0 273.74 6.56"/><polygon class="cls-1" points="273.74 19.67 267.22 26.23 260.7 19.67 267.22 13.12 273.74 19.67"/><polygon class="cls-1" points="247.66 6.56 241.14 13.12 234.62 6.56 241.14 0 247.66 6.56"/><polygon class="cls-1" points="247.66 19.67 241.14 26.23 234.62 19.67 241.14 13.12 247.66 19.67"/><path class="cls-1" d="M9.38,13.87H479.09c6.35,0,12.71.08,19.06,0H499a.76.76,0,0,0,0-1.51H29.27c-6.35,0-12.71-.08-19.06,0H9.38a.76.76,0,0,0,0,1.51Z"/><polygon class="cls-1" points="502.93 9.95 499.78 13.12 496.64 9.95 499.78 6.79 502.93 9.95"/><polygon class="cls-1" points="502.93 16.28 499.78 19.44 496.64 16.28 499.78 13.12 502.93 16.28"/><polygon class="cls-1" points="508.5 13.12 506.05 15.58 503.61 13.12 506.05 10.65 508.5 13.12"/><polygon class="cls-1" points="5.58 9.95 8.72 13.12 11.86 9.95 8.72 6.79 5.58 9.95"/><polygon class="cls-1" points="5.58 16.28 8.72 19.44 11.86 16.28 8.72 13.12 5.58 16.28"/><polygon class="cls-1" points="0 13.12 2.45 15.58 4.9 13.12 2.45 10.65 0 13.12"/><polygon class="cls-1" points="201.84 9.66 205.32 13.12 201.84 16.58 198.35 13.12 201.84 9.66"/><polygon class="cls-1" points="208.8 9.66 212.28 13.12 208.8 16.58 205.32 13.12 208.8 9.66"/><polygon class="cls-1" points="161.05 10.28 163.9 13.12 161.05 15.95 158.2 13.12 161.05 10.28"/><polygon class="cls-1" points="166.75 10.28 169.6 13.12 166.75 15.95 163.9 13.12 166.75 10.28"/><polygon class="cls-1" points="119.63 10.28 122.48 13.12 119.63 15.95 116.78 13.12 119.63 10.28"/><polygon class="cls-1" points="125.34 10.28 128.19 13.12 125.34 15.95 122.48 13.12 125.34 10.28"/><polygon class="cls-1" points="78.22 10.28 81.07 13.12 78.22 15.95 75.36 13.12 78.22 10.28"/><polygon class="cls-1" points="83.92 10.28 86.77 13.12 83.92 15.95 81.07 13.12 83.92 10.28"/><polygon class="cls-1" points="36.8 10.28 39.65 13.12 36.8 15.95 33.95 13.12 36.8 10.28"/><polygon class="cls-1" points="42.5 10.28 45.36 13.12 42.5 15.95 39.65 13.12 42.5 10.28"/><polygon class="cls-1" points="464.11 9.66 467.59 13.12 464.11 16.58 460.63 13.12 464.11 9.66"/><polygon class="cls-1" points="471.07 9.66 474.56 13.12 471.07 16.58 467.59 13.12 471.07 9.66"/><polygon class="cls-1" points="423.32 10.28 426.18 13.12 423.32 15.95 420.47 13.12 423.32 10.28"/><polygon class="cls-1" points="429.03 10.28 431.88 13.12 429.03 15.95 426.18 13.12 429.03 10.28"/><polygon class="cls-1" points="381.91 10.28 384.76 13.12 381.91 15.95 379.06 13.12 381.91 10.28"/><polygon class="cls-1" points="387.61 10.28 390.46 13.12 387.61 15.95 384.76 13.12 387.61 10.28"/><polygon class="cls-1" points="340.49 10.28 343.35 13.12 340.49 15.95 337.64 13.12 340.49 10.28"/><polygon class="cls-1" points="346.2 10.28 349.05 13.12 346.2 15.95 343.34 13.12 346.2 10.28"/><polygon class="cls-1" points="299.08 10.28 301.93 13.12 299.08 15.95 296.22 13.12 299.08 10.28"/><polygon class="cls-1" points="304.78 10.28 307.63 13.12 304.78 15.95 301.93 13.12 304.78 10.28"/></g></g></svg>