<svg width="1004" height="335" viewBox="0 0 1004 335" fill="none" xmlns="http://www.w3.org/2000/svg">
<path d="M95.6625 251H59.6945V247.288C61.5718 246.605 63.4492 246.008 65.3265 245.496C67.2892 244.984 69.3798 244.557 71.5985 244.216V168.056H52.0145L45.2305 186.36H42.0305C41.7745 184.653 41.5612 182.733 41.3905 180.6C41.2198 178.381 41.0492 176.163 40.8785 173.944C40.7932 171.64 40.7078 169.421 40.6225 167.288C40.5372 165.069 40.4945 163.107 40.4945 161.4H114.863C114.863 163.107 114.82 165.027 114.735 167.16C114.649 169.293 114.521 171.512 114.351 173.816C114.265 176.035 114.137 178.253 113.967 180.472C113.881 182.605 113.711 184.568 113.455 186.36H110.127L103.471 168.056H83.8865V244.216C86.1052 244.643 88.1532 245.069 90.0305 245.496C91.9932 245.923 93.8705 246.52 95.6625 247.288V251ZM190.273 251H162.625V247.8C164.673 246.691 167.233 245.667 170.305 244.728V214.776C170.305 208.12 169.366 202.915 167.489 199.16C165.611 195.32 162.198 193.4 157.249 193.4C155.03 193.4 153.025 193.827 151.233 194.68C149.441 195.448 147.819 196.472 146.369 197.752C144.918 199.032 143.681 200.525 142.657 202.232C141.633 203.853 140.865 205.56 140.353 207.352V244.728C141.718 245.069 142.998 245.453 144.193 245.88C145.473 246.307 146.71 246.947 147.905 247.8V251H120.385V247.8C123.03 246.435 125.846 245.411 128.833 244.728V163.704L119.105 162.68V159.352C121.579 158.328 124.438 157.432 127.681 156.664C131.009 155.896 134.166 155.256 137.153 154.744H140.353V199.928H140.481C142.273 195.917 144.833 192.504 148.161 189.688C151.574 186.872 155.67 185.464 160.449 185.464C163.862 185.464 166.891 185.891 169.537 186.744C172.267 187.512 174.529 188.92 176.321 190.968C178.113 193.016 179.478 195.789 180.417 199.288C181.355 202.701 181.825 207.053 181.825 212.344V244.728C183.275 245.069 184.726 245.453 186.177 245.88C187.627 246.307 188.993 246.947 190.273 247.8V251ZM249.526 242.04C248.843 243.491 247.776 244.856 246.326 246.136C244.875 247.416 243.211 248.525 241.334 249.464C239.456 250.403 237.408 251.128 235.19 251.64C232.971 252.237 230.71 252.536 228.406 252.536C223.371 252.536 218.934 251.768 215.094 250.232C211.253 248.611 208.054 246.349 205.494 243.448C202.934 240.461 200.971 236.92 199.606 232.824C198.326 228.728 197.686 224.12 197.686 219C197.686 208.077 200.203 199.757 205.238 194.04C210.272 188.323 217.398 185.464 226.614 185.464C229.6 185.464 232.544 185.891 235.446 186.744C238.347 187.512 240.907 188.835 243.126 190.712C245.43 192.589 247.264 195.107 248.63 198.264C250.08 201.336 250.806 205.176 250.806 209.784C250.806 211.235 250.72 212.728 250.55 214.264C250.464 215.715 250.251 217.293 249.91 219H209.974C209.974 222.584 210.4 225.955 211.253 229.112C212.192 232.184 213.558 234.872 215.35 237.176C217.142 239.48 219.403 241.315 222.134 242.68C224.864 243.96 228.064 244.6 231.734 244.6C234.72 244.6 237.75 244.173 240.822 243.32C243.894 242.467 246.198 241.357 247.734 239.992L249.526 242.04ZM226.102 191.096C221.238 191.096 217.526 192.76 214.966 196.088C212.406 199.331 210.87 205.091 210.358 213.368H238.518C238.603 212.6 238.646 211.875 238.646 211.192C238.731 210.424 238.774 209.699 238.774 209.016C238.774 203.555 237.75 199.203 235.702 195.96C233.654 192.717 230.454 191.096 226.102 191.096ZM357.954 227.704H361.282C361.708 230.093 362.092 233.123 362.434 236.792C362.775 240.376 362.86 243.875 362.69 247.288C361.41 248.312 359.874 249.165 358.082 249.848C356.29 250.445 354.37 250.957 352.322 251.384C350.359 251.811 348.311 252.109 346.178 252.28C344.13 252.451 342.167 252.536 340.29 252.536C333.122 252.536 326.722 251.64 321.09 249.848C315.458 247.971 310.679 245.155 306.753 241.4C302.914 237.645 299.927 232.867 297.794 227.064C295.746 221.176 294.722 214.221 294.722 206.2C294.722 197.837 295.874 190.755 298.178 184.952C300.482 179.064 303.596 174.285 307.522 170.616C311.447 166.861 316.012 164.131 321.218 162.424C326.423 160.717 331.884 159.864 337.602 159.864C343.234 159.864 347.97 160.248 351.81 161.016C355.65 161.699 359.02 162.765 361.922 164.216C361.922 165.581 361.879 167.203 361.794 169.08C361.708 170.872 361.58 172.792 361.41 174.84C361.239 176.888 361.026 178.893 360.77 180.856C360.514 182.819 360.258 184.611 360.002 186.232H356.674L350.018 167.8C349.079 167.288 347.5 166.947 345.282 166.776C343.148 166.605 341.015 166.52 338.882 166.52C334.615 166.52 330.562 167.331 326.722 168.952C322.967 170.488 319.639 172.92 316.738 176.248C313.922 179.491 311.66 183.629 309.954 188.664C308.247 193.613 307.394 199.459 307.394 206.2C307.394 212.259 308.162 217.763 309.698 222.712C311.234 227.576 313.452 231.757 316.354 235.256C319.255 238.669 322.796 241.315 326.978 243.192C331.159 244.984 335.895 245.88 341.186 245.88C344.002 245.88 346.348 245.667 348.226 245.24C350.103 244.813 351.34 244.259 351.938 243.576L357.954 227.704ZM372.436 219C372.436 213.624 373.118 208.888 374.484 204.792C375.934 200.611 377.982 197.112 380.628 194.296C383.273 191.395 386.43 189.219 390.1 187.768C393.854 186.232 397.993 185.464 402.516 185.464C407.806 185.464 412.372 186.275 416.212 187.896C420.052 189.517 423.166 191.821 425.556 194.808C428.03 197.709 429.822 201.208 430.932 205.304C432.126 209.4 432.724 213.965 432.724 219C432.724 229.752 429.993 238.029 424.532 243.832C419.07 249.635 411.732 252.536 402.516 252.536C397.396 252.536 392.958 251.768 389.204 250.232C385.449 248.611 382.334 246.349 379.86 243.448C377.385 240.461 375.508 236.92 374.228 232.824C373.033 228.643 372.436 224.035 372.436 219ZM384.724 219C384.724 222.84 385.065 226.467 385.748 229.88C386.516 233.293 387.668 236.28 389.204 238.84C390.825 241.315 392.916 243.277 395.476 244.728C398.036 246.179 401.108 246.904 404.692 246.904C409.3 246.904 413.054 244.643 415.956 240.12C418.942 235.597 420.436 228.557 420.436 219C420.436 215.075 420.052 211.448 419.284 208.12C418.601 204.707 417.492 201.763 415.956 199.288C414.42 196.728 412.457 194.723 410.068 193.272C407.678 191.821 404.82 191.096 401.492 191.096C396.457 191.096 392.404 193.357 389.332 197.88C386.26 202.403 384.724 209.443 384.724 219ZM511.794 251H484.274V247.8C486.578 246.605 489.095 245.581 491.826 244.728V214.392C491.826 207.907 490.887 202.787 489.01 199.032C487.132 195.277 483.719 193.4 478.77 193.4C476.636 193.4 474.631 193.784 472.754 194.552C470.962 195.32 469.34 196.387 467.89 197.752C466.524 199.032 465.33 200.525 464.306 202.232C463.282 203.853 462.471 205.56 461.874 207.352V244.728C464.519 245.24 467.079 246.264 469.554 247.8V251H441.906V247.8C444.039 246.691 446.855 245.667 450.354 244.728V194.424L441.906 193.4V190.072C444.124 189.133 446.684 188.28 449.586 187.512C452.487 186.744 455.516 186.061 458.674 185.464H461.874V199.8H462.002C463.794 195.875 466.354 192.504 469.682 189.688C473.095 186.872 477.191 185.464 481.97 185.464C485.383 185.464 488.412 185.891 491.058 186.744C493.788 187.512 496.05 188.92 497.842 190.968C499.634 193.016 500.999 195.789 501.938 199.288C502.876 202.701 503.346 207.053 503.346 212.344V244.728C506.759 245.325 509.575 246.349 511.794 247.8V251ZM515.858 190.072C519.1 188.024 522.514 186.573 526.098 185.72V174.84C527.207 173.901 528.487 173.091 529.938 172.408C531.474 171.64 532.967 170.915 534.418 170.232H537.618V187H556.818V193.4H537.618V230.52C537.618 235.64 538.428 239.267 540.05 241.4C541.671 243.533 544.103 244.6 547.346 244.6C548.882 244.6 550.802 244.515 553.106 244.344C555.41 244.088 557.372 243.661 558.994 243.064L559.89 244.984C559.207 245.752 558.226 246.563 556.946 247.416C555.751 248.269 554.343 249.08 552.722 249.848C551.186 250.616 549.479 251.256 547.602 251.768C545.724 252.28 543.804 252.536 541.842 252.536C536.722 252.536 532.796 251.085 530.066 248.184C527.42 245.283 526.098 240.589 526.098 234.104V193.4H515.858V190.072ZM595.102 251H566.686V247.8C567.966 247.117 569.288 246.563 570.654 246.136C572.019 245.624 573.512 245.155 575.134 244.728V194.424L566.686 193.4V190.072C569.16 189.048 571.848 188.152 574.75 187.384C577.651 186.616 580.552 185.976 583.454 185.464H586.654V244.728C588.36 245.155 589.896 245.624 591.262 246.136C592.627 246.563 593.907 247.117 595.102 247.8V251ZM572.702 165.24C572.702 162.936 573.427 161.101 574.878 159.736C576.414 158.371 578.419 157.688 580.894 157.688C583.368 157.688 585.331 158.371 586.782 159.736C588.232 161.101 588.958 162.936 588.958 165.24C588.958 167.544 588.232 169.379 586.782 170.744C585.331 172.024 583.368 172.664 580.894 172.664C578.419 172.664 576.414 172.024 574.878 170.744C573.427 169.379 572.702 167.544 572.702 165.24ZM673.794 251H646.274V247.8C648.578 246.605 651.095 245.581 653.826 244.728V214.392C653.826 207.907 652.887 202.787 651.01 199.032C649.132 195.277 645.719 193.4 640.77 193.4C638.636 193.4 636.631 193.784 634.754 194.552C632.962 195.32 631.34 196.387 629.89 197.752C628.524 199.032 627.33 200.525 626.306 202.232C625.282 203.853 624.471 205.56 623.874 207.352V244.728C626.519 245.24 629.079 246.264 631.554 247.8V251H603.906V247.8C606.039 246.691 608.855 245.667 612.354 244.728V194.424L603.906 193.4V190.072C606.124 189.133 608.684 188.28 611.586 187.512C614.487 186.744 617.516 186.061 620.674 185.464H623.874V199.8H624.002C625.794 195.875 628.354 192.504 631.682 189.688C635.095 186.872 639.191 185.464 643.97 185.464C647.383 185.464 650.412 185.891 653.058 186.744C655.788 187.512 658.05 188.92 659.842 190.968C661.634 193.016 662.999 195.789 663.938 199.288C664.876 202.701 665.346 207.053 665.346 212.344V244.728C668.759 245.325 671.575 246.349 673.794 247.8V251ZM733.026 242.04C732.343 243.491 731.276 244.856 729.826 246.136C728.375 247.416 726.711 248.525 724.834 249.464C722.956 250.403 720.908 251.128 718.69 251.64C716.471 252.237 714.21 252.536 711.906 252.536C706.871 252.536 702.434 251.768 698.594 250.232C694.753 248.611 691.554 246.349 688.994 243.448C686.434 240.461 684.471 236.92 683.106 232.824C681.826 228.728 681.186 224.12 681.186 219C681.186 208.077 683.703 199.757 688.738 194.04C693.772 188.323 700.898 185.464 710.114 185.464C713.1 185.464 716.044 185.891 718.946 186.744C721.847 187.512 724.407 188.835 726.626 190.712C728.93 192.589 730.764 195.107 732.13 198.264C733.58 201.336 734.306 205.176 734.306 209.784C734.306 211.235 734.22 212.728 734.05 214.264C733.964 215.715 733.751 217.293 733.41 219H693.474C693.474 222.584 693.9 225.955 694.753 229.112C695.692 232.184 697.058 234.872 698.85 237.176C700.642 239.48 702.903 241.315 705.634 242.68C708.364 243.96 711.564 244.6 715.234 244.6C718.22 244.6 721.25 244.173 724.322 243.32C727.394 242.467 729.698 241.357 731.234 239.992L733.026 242.04ZM709.602 191.096C704.738 191.096 701.026 192.76 698.466 196.088C695.906 199.331 694.37 205.091 693.858 213.368H722.018C722.103 212.6 722.146 211.875 722.146 211.192C722.231 210.424 722.274 209.699 722.274 209.016C722.274 203.555 721.25 199.203 719.202 195.96C717.154 192.717 713.954 191.096 709.602 191.096ZM814.169 251H786.649V247.8C788.953 246.605 791.47 245.581 794.201 244.728V214.392C794.201 207.907 793.262 202.787 791.385 199.032C789.507 195.277 786.094 193.4 781.145 193.4C779.011 193.4 777.006 193.784 775.129 194.552C773.337 195.32 771.715 196.387 770.265 197.752C768.899 199.032 767.705 200.525 766.681 202.232C765.657 203.853 764.846 205.56 764.249 207.352V244.728C766.894 245.24 769.454 246.264 771.929 247.8V251H744.281V247.8C746.414 246.691 749.23 245.667 752.729 244.728V194.424L744.281 193.4V190.072C746.499 189.133 749.059 188.28 751.961 187.512C754.862 186.744 757.891 186.061 761.049 185.464H764.249V199.8H764.377C766.169 195.875 768.729 192.504 772.057 189.688C775.47 186.872 779.566 185.464 784.345 185.464C787.758 185.464 790.787 185.891 793.433 186.744C796.163 187.512 798.425 188.92 800.217 190.968C802.009 193.016 803.374 195.789 804.312 199.288C805.251 202.701 805.721 207.053 805.721 212.344V244.728C809.134 245.325 811.95 246.349 814.169 247.8V251ZM818.233 190.072C821.475 188.024 824.889 186.573 828.473 185.72V174.84C829.582 173.901 830.862 173.091 832.312 172.408C833.849 171.64 835.342 170.915 836.793 170.232H839.993V187H859.193V193.4H839.993V230.52C839.993 235.64 840.803 239.267 842.425 241.4C844.046 243.533 846.478 244.6 849.721 244.6C851.257 244.6 853.177 244.515 855.481 244.344C857.785 244.088 859.747 243.661 861.369 243.064L862.265 244.984C861.582 245.752 860.601 246.563 859.321 247.416C858.126 248.269 856.718 249.08 855.097 249.848C853.561 250.616 851.854 251.256 849.977 251.768C848.099 252.28 846.179 252.536 844.217 252.536C839.097 252.536 835.171 251.085 832.441 248.184C829.795 245.283 828.473 240.589 828.473 234.104V193.4H818.233V190.072ZM916.293 234.232C916.293 236.109 916.335 237.731 916.421 239.096C916.506 240.461 916.591 241.912 916.677 243.448L925.509 244.728V247.416C923.375 248.525 920.986 249.507 918.341 250.36C915.781 251.213 913.306 251.853 910.917 252.28H907.717C906.863 250.317 906.351 248.184 906.181 245.88C906.01 243.491 905.882 240.888 905.797 238.072H905.157C904.815 239.779 904.133 241.528 903.109 243.32C902.17 245.027 900.89 246.563 899.269 247.928C897.733 249.293 895.898 250.403 893.765 251.256C891.631 252.109 889.199 252.536 886.469 252.536C881.263 252.536 876.997 250.957 873.669 247.8C870.426 244.643 868.805 240.504 868.805 235.384C868.805 231.459 869.573 228.259 871.109 225.784C872.73 223.224 875.077 221.219 878.149 219.768C881.221 218.317 885.018 217.293 889.541 216.696C894.063 216.013 899.311 215.501 905.285 215.16C905.626 211.491 905.711 208.205 905.541 205.304C905.455 202.317 904.986 199.8 904.133 197.752C903.365 195.619 902.17 193.997 900.549 192.888C899.013 191.693 896.965 191.096 894.405 191.096C893.21 191.096 891.845 191.181 890.309 191.352C888.858 191.437 887.407 191.779 885.957 192.376L879.941 207.736H876.613C875.759 205.176 874.991 202.531 874.309 199.8C873.711 197.069 873.327 194.381 873.157 191.736C876.399 189.773 879.983 188.237 883.909 187.128C887.919 186.019 892.357 185.464 897.221 185.464C901.573 185.464 905.029 186.104 907.589 187.384C910.234 188.579 912.239 190.157 913.605 192.12C914.97 194.083 915.866 196.259 916.293 198.648C916.719 201.037 916.933 203.427 916.933 205.816C916.933 210.936 916.805 215.885 916.549 220.664C916.378 225.357 916.293 229.88 916.293 234.232ZM891.589 244.6C893.722 244.6 895.599 244.173 897.221 243.32C898.842 242.467 900.207 241.443 901.317 240.248C902.426 239.053 903.322 237.859 904.005 236.664C904.687 235.384 905.157 234.317 905.413 233.464V220.024C900.463 220.024 896.41 220.28 893.253 220.792C890.095 221.304 887.621 222.115 885.829 223.224C884.037 224.333 882.799 225.741 882.117 227.448C881.434 229.069 881.093 230.947 881.093 233.08C881.093 236.749 882.031 239.608 883.909 241.656C885.786 243.619 888.346 244.6 891.589 244.6ZM962.102 251H933.686V247.8C936.502 246.435 939.318 245.411 942.134 244.728V163.704L932.406 162.68V159.352C934.624 158.328 937.398 157.432 940.726 156.664C944.054 155.896 947.296 155.256 950.454 154.744H953.654V244.728C956.47 245.411 959.286 246.435 962.102 247.8V251Z" fill="black"/>
<g clip-path="url(#clip0_1_61)">
<path d="M514.735 296.005L501.862 309.01L488.988 296.005L501.862 283L514.735 296.005Z" fill="black"/>
<path d="M514.735 321.995L501.862 335L488.988 321.995L501.862 309.01L514.735 321.995Z" fill="black"/>
<path d="M540.482 296.005L527.608 309.01L514.735 296.005L527.608 283L540.482 296.005Z" fill="black"/>
<path d="M540.482 321.995L527.608 335L514.735 321.995L527.608 309.01L540.482 321.995Z" fill="black"/>
<path d="M488.988 296.005L476.115 309.01L463.242 296.005L476.115 283L488.988 296.005Z" fill="black"/>
<path d="M488.988 321.995L476.115 335L463.242 321.995L476.115 309.01L488.988 321.995Z" fill="black"/>
<path d="M18.5202 310.497H945.932C958.47 310.497 971.027 310.655 983.565 310.497H985.243C985.609 310.454 985.946 310.279 986.191 310.003C986.436 309.727 986.572 309.37 986.572 309C986.572 308.63 986.436 308.273 986.191 307.997C985.946 307.721 985.609 307.546 985.243 307.503H57.7917C45.254 307.503 32.6966 307.345 20.159 307.503H18.5202C18.1544 307.546 17.8169 307.721 17.5719 307.997C17.3269 308.273 17.1915 308.63 17.1915 309C17.1915 309.37 17.3269 309.727 17.5719 310.003C17.8169 310.279 18.1544 310.454 18.5202 310.497Z" fill="black"/>
<path d="M993.002 302.726L986.783 309.01L980.583 302.726L986.783 296.461L993.002 302.726Z" fill="black"/>
<path d="M993.002 315.274L986.783 321.539L980.583 315.274L986.783 309.01L993.002 315.274Z" fill="black"/>
<path d="M1004 309.01L999.163 313.887L994.345 309.01L999.163 304.113L1004 309.01Z" fill="black"/>
<path d="M11.0173 302.726L17.2171 309.01L23.4168 302.726L17.2171 296.461L11.0173 302.726Z" fill="black"/>
<path d="M11.0173 315.274L17.2171 321.539L23.4168 315.274L17.2171 309.01L11.0173 315.274Z" fill="black"/>
<path d="M0 309.01L4.83737 313.887L9.67473 309.01L4.83737 304.113L0 309.01Z" fill="black"/>
<path d="M398.52 302.151L405.391 309.01L398.52 315.869L391.629 309.01L398.52 302.151Z" fill="black"/>
<path d="M412.262 302.151L419.133 309.01L412.262 315.869L405.391 309.01L412.262 302.151Z" fill="black"/>
<path d="M317.983 303.38L323.61 309.01L317.983 314.62L312.356 309.01L317.983 303.38Z" fill="black"/>
<path d="M329.237 303.38L334.864 309.01L329.237 314.62L323.61 309.01L329.237 303.38Z" fill="black"/>
<path d="M236.202 303.38L241.829 309.01L236.202 314.62L230.574 309.01L236.202 303.38Z" fill="black"/>
<path d="M247.476 303.38L253.103 309.01L247.476 314.62L241.829 309.01L247.476 303.38Z" fill="black"/>
<path d="M154.44 303.38L160.067 309.01L154.44 314.62L148.793 309.01L154.44 303.38Z" fill="black"/>
<path d="M165.695 303.38L171.322 309.01L165.695 314.62L160.067 309.01L165.695 303.38Z" fill="black"/>
<path d="M72.6592 303.38L78.2863 309.01L72.6592 314.62L67.032 309.01L72.6592 303.38Z" fill="black"/>
<path d="M83.9135 303.38L89.5603 309.01L83.9135 314.62L78.2863 309.01L83.9135 303.38Z" fill="black"/>
<path d="M916.355 302.151L923.226 309.01L916.355 315.869L909.484 309.01L916.355 302.151Z" fill="black"/>
<path d="M930.097 302.151L936.988 309.01L930.097 315.869L923.226 309.01L930.097 302.151Z" fill="black"/>
<path d="M835.818 303.38L841.465 309.01L835.818 314.62L830.191 309.01L835.818 303.38Z" fill="black"/>
<path d="M847.092 303.38L852.719 309.01L847.092 314.62L841.464 309.01L847.092 303.38Z" fill="black"/>
<path d="M754.056 303.38L759.684 309.01L754.056 314.62L748.429 309.01L754.056 303.38Z" fill="black"/>
<path d="M765.311 303.38L770.938 309.01L765.311 314.62L759.683 309.01L765.311 303.38Z" fill="black"/>
<path d="M672.275 303.38L677.922 309.01L672.275 314.62L666.648 309.01L672.275 303.38Z" fill="black"/>
<path d="M683.549 303.38L689.176 309.01L683.549 314.62L677.902 309.01L683.549 303.38Z" fill="black"/>
<path d="M590.514 303.38L596.141 309.01L590.514 314.62L584.867 309.01L590.514 303.38Z" fill="black"/>
<path d="M601.768 303.38L607.395 309.01L601.768 314.62L596.141 309.01L601.768 303.38Z" fill="black"/>
</g>
<g clip-path="url(#clip1_1_61)">
<path d="M567.689 88.1942C560.72 93.4545 552.289 88.6653 547.353 84.7985C542.356 80.7763 536.202 78.439 529.78 78.125C507.153 77.3399 504.527 102.719 504.527 102.719C504.527 102.719 519 78.7138 536.118 87.0165C539.977 89.0236 543.277 91.9486 545.723 95.5308C548.169 99.1131 549.685 103.241 550.137 107.548C551.2 105.296 551.678 102.815 551.526 100.332C551.374 97.8491 550.598 95.4439 549.268 93.3368C553.612 95.3781 560.739 97.3016 567.689 88.1942Z" fill="black"/>
<path d="M431.592 88.1942C438.561 93.4545 446.992 88.6653 451.928 84.7985C456.926 80.7787 463.08 78.4417 469.501 78.125C492.128 77.3399 494.754 102.719 494.754 102.719C494.754 102.719 480.301 78.7138 463.163 87.0165C459.3 89.0211 455.997 91.9451 453.547 95.5275C451.098 99.1099 449.578 103.239 449.125 107.548C448.066 105.294 447.593 102.812 447.748 100.33C447.903 97.8471 448.682 95.4428 450.013 93.3368C445.669 95.3781 438.522 97.3016 431.592 88.1942Z" fill="black"/>
<path d="M520.856 72.7076C512.859 71.1766 505.574 80.9907 501.112 88.8812C500.578 89.8233 500.085 90.844 499.631 91.6095C499.196 90.7655 498.722 89.8233 498.189 88.9008C493.707 81.0496 486.343 71.2355 478.445 72.7076C484.684 63.0899 494.398 68.095 499.65 83.7583C504.922 68.095 514.617 63.0899 520.856 72.7076Z" fill="black"/>
<path d="M496.551 63.2469C495.583 58.4576 499.65 52 499.65 52C499.65 52 503.599 58.4576 502.75 63.2469C502.632 63.9797 502.255 64.6468 501.687 65.1283C501.119 65.6098 500.397 65.8743 499.65 65.8743C498.904 65.8743 498.182 65.6098 497.614 65.1283C497.045 64.6468 496.669 63.9797 496.551 63.2469Z" fill="black"/>
<path d="M567.867 103.327C613.839 109.451 660.338 110.668 706.571 106.959C725.211 105.618 743.76 103.239 762.132 99.8337C781.469 95.8814 800.539 90.7354 819.232 84.4256C851.435 74.1405 885.633 66.5641 919.652 68.0362C931.282 68.5465 945.32 69.5083 955.824 75.0434C957.522 75.9267 959.042 73.375 957.344 72.4721C949.17 68.1932 938.982 66.8388 929.959 65.8378C900.757 62.6581 870.726 67.4081 842.57 74.6116C822.352 79.7738 802.884 87.3698 782.626 92.375C763.619 96.9886 744.317 100.307 724.854 102.307C690.784 105.826 656.492 106.725 622.283 104.996C604.513 104.171 586.012 103.033 568.657 100.521C566.781 100.246 565.972 103.112 567.867 103.386V103.327Z" fill="black"/>
<path d="M435.343 100.56C388.126 106.814 340.358 107.874 292.907 103.72C273.481 102.185 254.167 99.4647 235.076 95.5744C215.213 91.4329 196.2 84.7004 176.712 78.9297C146.108 69.8616 113.787 63.4039 81.7811 65.3078C70.3886 65.9752 57.0611 67.2707 46.7151 72.5899C45.0171 73.4731 46.5374 76.0444 48.2354 75.1415C56.6465 70.7252 67.5257 69.4886 76.8055 68.6446C107.784 65.8378 139.296 71.6281 169.031 79.7934C188.776 85.3285 208.066 92.5909 228.264 97.125C246.596 101.154 265.157 104.071 283.845 105.86C317.524 109.035 351.395 109.691 385.173 107.822C402.192 106.959 419.311 105.86 436.192 103.406C438.167 103.131 437.278 100.265 435.402 100.54L435.343 100.56Z" fill="black"/>
<path d="M20.9488 55.4153C19.4087 63.2665 29.3204 70.5289 37.3168 75.0434L40.081 76.4959C39.2123 76.9081 38.2843 77.3988 37.3366 77.9287C29.4388 82.345 19.4087 89.5485 20.9488 97.5568C11.2148 91.374 16.2693 81.8543 32.1241 76.594C16.2693 71.1766 11.2148 61.5785 20.9488 55.4153Z" fill="black"/>
<path d="M11.3727 79.4793C6.53538 80.3626 0 76.3781 0 76.3781C0 76.3781 6.53538 72.4525 11.3727 73.3161C12.1346 73.4017 12.838 73.7632 13.3488 74.3316C13.8596 74.9001 14.1419 75.6355 14.1419 76.3977C14.1419 77.1599 13.8596 77.8954 13.3488 78.4638C12.838 79.0322 12.1346 79.3937 11.3727 79.4793Z" fill="black"/>
<path d="M983.051 55.4153C984.611 63.2665 974.68 70.5289 966.703 75.0434L963.919 76.4959C964.788 76.9081 965.735 77.3988 966.663 77.9287C974.66 82.345 984.611 89.5485 983.051 97.5568C992.785 91.374 987.731 81.8543 971.876 76.594C987.731 71.1766 992.785 61.5785 983.051 55.4153Z" fill="black"/>
<path d="M992.627 79.4793C997.465 80.3822 1004 76.3977 1004 76.3977C1004 76.3977 997.465 72.4721 992.627 73.3357C991.881 73.4387 991.198 73.8063 990.703 74.3709C990.209 74.9355 989.936 75.6589 989.936 76.4075C989.936 77.1562 990.209 77.8796 990.703 78.4442C991.198 79.0087 991.881 79.3764 992.627 79.4793Z" fill="black"/>
</g>
<g clip-path="url(#clip2_1_61)">
<path d="M525.27 44.05C523.197 44.0667 521.137 43.7111 519.19 43L518.69 42.82C513.879 40.9392 509.468 38.1635 505.69 34.64C494.79 24.64 484.89 28.32 484.79 28.36H484.64C482.814 28.8296 481.248 30.0002 480.28 31.6177C479.312 33.2353 479.021 35.1693 479.47 37C479.811 38.3928 480.689 39.5945 481.912 40.3436C483.135 41.0927 484.604 41.3286 486 41C486.536 40.8592 487.036 40.6088 487.47 40.2645C487.904 39.9202 488.261 39.4896 488.52 39C488.919 38.3842 489.126 37.6632 489.114 36.9293C489.101 36.1954 488.87 35.4819 488.45 34.88C488.092 34.4236 487.61 34.0806 487.062 33.8925C486.514 33.7044 485.922 33.6792 485.36 33.82C485.037 33.8958 484.696 33.842 484.412 33.67C484.128 33.4981 483.923 33.2216 483.84 32.9C483.8 32.7397 483.792 32.5731 483.816 32.4097C483.841 32.2463 483.897 32.0894 483.983 31.9481C484.068 31.8067 484.181 31.6837 484.315 31.5862C484.448 31.4887 484.599 31.4186 484.76 31.38C485.791 31.1249 486.874 31.1733 487.878 31.5193C488.882 31.8652 489.765 32.494 490.42 33.33C491.142 34.3091 491.559 35.4798 491.618 36.6951C491.676 37.9103 491.375 39.1158 490.75 40.16C490.326 40.9802 489.734 41.7017 489.012 42.2773C488.29 42.8529 487.454 43.2695 486.56 43.5C484.512 43.9703 482.362 43.6161 480.573 42.514C478.784 41.4119 477.501 39.6504 477 37.61C476.393 35.1336 476.788 32.518 478.099 30.3311C479.41 28.1442 481.53 26.5627 484 25.93C485.1 25.54 495.77 22.09 507.41 32.73C510.939 36.0169 515.049 38.6179 519.53 40.4L520.07 40.6C522.412 41.4734 524.934 41.748 527.409 41.3987C529.884 41.0495 532.232 40.0874 534.24 38.6C536.135 37.2484 537.657 35.4392 538.664 33.341C539.671 31.2427 540.131 28.9237 540 26.6C540 26.23 540 25.86 539.9 25.48C539.674 23.7972 539.09 22.1823 538.188 20.7438C537.286 19.3053 536.086 18.0765 534.67 17.14C530.45 14.18 526 13.78 522.38 16C520.785 16.9794 519.506 18.399 518.699 20.088C517.892 21.7771 517.59 23.6634 517.83 25.52C517.971 26.5115 518.316 27.4628 518.845 28.3133C519.373 29.1638 520.073 29.8949 520.9 30.46C523.46 32.26 526.17 32.53 528.34 31.22C529.293 30.6398 530.057 29.7948 530.538 28.788C531.019 27.7812 531.197 26.6561 531.05 25.55C530.979 24.9833 530.797 24.4361 530.514 23.9401C530.231 23.4442 529.852 23.0091 529.4 22.66C528.956 22.3155 528.448 22.063 527.906 21.917C527.363 21.7711 526.797 21.7347 526.24 21.81C525.924 21.8261 525.613 21.7226 525.37 21.5201C525.127 21.3176 524.968 21.031 524.927 20.7172C524.885 20.4033 524.963 20.0854 525.145 19.8265C525.328 19.5676 525.601 19.3868 525.91 19.32C526.791 19.2025 527.687 19.2614 528.545 19.4932C529.404 19.7249 530.208 20.1249 530.91 20.67C531.625 21.2204 532.225 21.9065 532.674 22.6889C533.124 23.4714 533.415 24.3349 533.53 25.23C533.735 26.8196 533.475 28.4344 532.781 29.8791C532.087 31.3238 530.989 32.5363 529.62 33.37C526.62 35.19 522.8 34.87 519.44 32.52C518.326 31.7546 517.384 30.7651 516.675 29.6148C515.966 28.4645 515.504 27.1788 515.32 25.84C515.014 23.5001 515.393 21.1218 516.41 18.9923C517.427 16.8629 519.038 15.0734 521.05 13.84C525.46 11.14 531.05 11.57 536.05 15C537.763 16.1337 539.211 17.6223 540.298 19.3649C541.385 21.1075 542.085 23.0634 542.35 25.1C542.403 25.5267 542.443 25.9567 542.47 26.39C542.631 29.1369 542.094 31.8798 540.908 34.3629C539.723 36.846 537.927 38.9883 535.69 40.59C532.673 42.823 529.023 44.0352 525.27 44.05Z" fill="black"/>
<path d="M473.26 44.05C469.496 44.043 465.834 42.8304 462.81 40.59C460.564 38.9944 458.761 36.854 457.57 34.3701C456.379 31.8861 455.838 29.1401 456 26.39C456 25.96 456.06 25.53 456.11 25.1C456.382 23.0608 457.089 21.1038 458.183 19.3613C459.277 17.6188 460.732 16.1315 462.45 15C467.45 11.57 473.05 11.14 477.45 13.84C479.461 15.0738 481.071 16.8637 482.086 18.9933C483.101 21.1229 483.478 23.501 483.17 25.84C482.986 27.1777 482.525 28.4624 481.818 29.6124C481.11 30.7625 480.171 31.7527 479.06 32.52C475.69 34.87 471.89 35.19 468.88 33.37C467.511 32.5328 466.416 31.3156 465.727 29.8667C465.038 28.4179 464.786 26.7999 465 25.21C465.113 24.3154 465.402 23.452 465.85 22.6694C466.298 21.8868 466.896 21.2005 467.61 20.65C468.312 20.1049 469.116 19.7049 469.975 19.4732C470.833 19.2414 471.729 19.1825 472.61 19.3C472.784 19.3088 472.954 19.3536 473.11 19.4315C473.265 19.5093 473.403 19.6186 473.514 19.7524C473.626 19.8862 473.708 20.0416 473.756 20.2088C473.805 20.376 473.818 20.5514 473.795 20.7239C473.772 20.8964 473.714 21.0623 473.624 21.2112C473.533 21.3601 473.413 21.4886 473.271 21.5888C473.129 21.6889 472.967 21.7585 472.797 21.7932C472.626 21.8278 472.45 21.8267 472.28 21.79C471.725 21.715 471.16 21.7515 470.619 21.8974C470.078 22.0434 469.572 22.2958 469.13 22.64C468.677 22.9886 468.296 23.4233 468.012 23.9193C467.727 24.4153 467.543 24.9627 467.47 25.53C467.326 26.638 467.508 27.764 467.992 28.7708C468.477 29.7775 469.244 30.6215 470.2 31.2C472.36 32.51 475.08 32.2 477.64 30.44C478.464 29.873 479.161 29.1413 479.688 28.2909C480.215 27.4406 480.559 26.4903 480.7 25.5C480.938 23.6475 480.637 21.7656 479.831 20.0804C479.026 18.3952 477.751 16.9783 476.16 16C472.56 13.8 468.08 14.2 463.87 17.09C462.452 18.0251 461.252 19.2535 460.35 20.6923C459.447 22.131 458.864 23.7466 458.64 25.43C458.59 25.81 458.56 26.18 458.53 26.55C458.404 28.8741 458.867 31.1924 459.876 33.2901C460.884 35.3877 462.406 37.1969 464.3 38.55C466.308 40.0374 468.656 40.9995 471.131 41.3487C473.606 41.698 476.128 41.4234 478.47 40.55L478.97 40.36C483.477 38.5786 487.611 35.9705 491.16 32.67C502.78 22.04 513.45 25.48 514.56 25.88C517.028 26.515 519.147 28.097 520.457 30.2832C521.768 32.4694 522.164 35.0838 521.56 37.56C521.064 39.6041 519.782 41.3705 517.993 42.4766C516.203 43.5827 514.05 43.9396 512 43.47C511.106 43.2383 510.271 42.8212 509.55 42.2458C508.828 41.6704 508.235 40.9495 507.81 40.13C507.188 39.085 506.888 37.88 506.946 36.6653C507.005 35.4506 507.42 34.2801 508.14 33.3C508.798 32.4642 509.682 31.8357 510.688 31.4898C511.693 31.144 512.777 31.0954 513.81 31.35C514.116 31.447 514.373 31.6568 514.529 31.9367C514.685 32.2166 514.729 32.5455 514.651 32.8565C514.573 33.1675 514.38 33.4372 514.11 33.6106C513.841 33.784 513.515 33.8482 513.2 33.79C512.639 33.6513 512.05 33.6775 511.504 33.8656C510.957 34.0536 510.477 34.3954 510.12 34.85C509.689 35.4509 509.447 36.1671 509.425 36.9066C509.404 37.6461 509.604 38.3751 510 39C510.263 39.4939 510.627 39.9271 511.068 40.2716C511.509 40.6161 512.017 40.8642 512.56 41C513.953 41.3254 515.419 41.0877 516.638 40.3387C517.857 39.5897 518.731 38.3899 519.07 37C519.522 35.1638 519.23 33.2236 518.258 31.6016C517.286 29.9797 515.712 28.8074 513.88 28.34H513.73C513.33 28.18 503.67 24.71 492.84 34.61C489.064 38.1405 484.653 40.923 479.84 42.81L479.37 42.98C477.415 43.7023 475.345 44.0648 473.26 44.05Z" fill="black"/>
<path d="M499.27 23C499.018 23.0002 498.772 22.9251 498.564 22.7843C498.355 22.6435 498.194 22.4435 498.1 22.21C497.94 21.81 494.18 12.3 495.1 5.01001C495.53 1.53001 497.51 0.0100098 499.29 0.0100098C501.07 0.0100098 503 1.56001 503.46 5.00001C504.36 12.29 500.59 21.8 500.46 22.2C500.366 22.4385 500.203 22.6429 499.99 22.7858C499.777 22.9287 499.526 23.0035 499.27 23ZM499.27 2.48001C498.6 2.48001 497.8 3.48001 497.57 5.32001C497.06 9.44001 498.27 14.54 499.27 17.85C500.27 14.54 501.47 9.44001 500.97 5.32001C500.73 3.49001 499.94 2.51001 499.27 2.51001V2.48001Z" fill="black"/>
<path d="M506.89 21.9C506.556 21.8995 506.236 21.7664 506 21.53C505.851 21.3801 505.743 21.1956 505.683 20.993C505.624 20.7905 505.616 20.5764 505.66 20.37C505.77 19.86 506.83 15.32 509.59 13.46C510.192 13.0401 510.922 12.8451 511.654 12.9091C512.385 12.9731 513.07 13.2919 513.59 13.81C514.127 14.3379 514.461 15.0379 514.534 15.7874C514.608 16.5369 514.415 17.2882 513.99 17.91C512.14 20.69 507.62 21.76 507.11 21.91C507.037 21.9132 506.963 21.9098 506.89 21.9ZM510.99 15.5C509.995 16.3319 509.247 17.4217 508.83 18.65C510.047 18.2266 511.123 17.4757 511.94 16.48C512.048 16.3469 512.102 16.1772 512.089 16.006C512.076 15.8348 511.997 15.6752 511.87 15.56C511.76 15.4368 511.607 15.3615 511.442 15.3503C511.278 15.3391 511.115 15.3928 510.99 15.5Z" fill="black"/>
<path d="M491.64 21.9C491.55 21.9098 491.46 21.9098 491.37 21.9C490.86 21.79 486.37 20.72 484.5 17.9C484.072 17.28 483.876 16.5289 483.948 15.7789C484.019 15.0289 484.353 14.3281 484.89 13.8C485.419 13.2568 486.126 12.9232 486.881 12.8607C487.637 12.7982 488.389 13.011 489 13.46C491.75 15.32 492.81 19.86 492.92 20.37C492.964 20.5764 492.956 20.7905 492.897 20.993C492.837 21.1956 492.729 21.3801 492.58 21.53C492.457 21.6532 492.31 21.7496 492.149 21.8133C491.987 21.877 491.814 21.9065 491.64 21.9ZM487.12 15.39C486.945 15.3972 486.78 15.4726 486.66 15.6C486.535 15.7164 486.458 15.8758 486.445 16.0463C486.432 16.2168 486.484 16.3859 486.59 16.52C487.411 17.5186 488.49 18.2727 489.71 18.7C489.288 17.4688 488.537 16.3762 487.54 15.54C487.419 15.448 487.272 15.3956 487.12 15.39Z" fill="black"/>
</g>
<defs>
<clipPath id="clip0_1_61">
<rect width="1004" height="52" fill="white" transform="translate(0 283)"/>
</clipPath>
<clipPath id="clip1_1_61">
<rect width="1004" height="57" fill="white" transform="translate(0 52)"/>
</clipPath>
<clipPath id="clip2_1_61">
<rect width="86.53" height="44.05" fill="white" transform="translate(456)"/>
</clipPath>
</defs>
</svg>
